<?xml version="1.0" encoding="UTF-8" standalone="no"?>
<svg
   viewBox="0 0 100 100"
   version="1.1"
   id="svg220"
   sodipodi:docname="poop.svg"
   inkscape:version="1.2.2 (b0a8486541, 2022-12-01)"
   xmlns:inkscape="http://www.inkscape.org/namespaces/inkscape"
   xmlns:sodipodi="http://sodipodi.sourceforge.net/DTD/sodipodi-0.dtd"
   xmlns="http://www.w3.org/2000/svg"
   xmlns:svg="http://www.w3.org/2000/svg">
  <defs
     id="defs224" />
  <sodipodi:namedview
     id="namedview222"
     pagecolor="#505050"
     bordercolor="#eeeeee"
     borderopacity="1"
     inkscape:showpageshadow="0"
     inkscape:pageopacity="0"
     inkscape:pagecheckerboard="0"
     inkscape:deskcolor="#505050"
     showgrid="false"
     showguides="false"
     inkscape:zoom="1.4142136"
     inkscape:cx="89.802561"
     inkscape:cy="39.59798"
     inkscape:window-width="1920"
     inkscape:window-height="1023"
     inkscape:window-x="0"
     inkscape:window-y="0"
     inkscape:window-maximized="1"
     inkscape:current-layer="svg220">
    <sodipodi:guide
       position="0,100"
       orientation="0,100"
       id="guide278"
       inkscape:locked="false" />
    <sodipodi:guide
       position="100,100"
       orientation="100,0"
       id="guide280"
       inkscape:locked="false" />
    <sodipodi:guide
       position="100,0"
       orientation="0,-100"
       id="guide282"
       inkscape:locked="false" />
    <sodipodi:guide
       position="0,0"
       orientation="-100,0"
       id="guide284"
       inkscape:locked="false" />
    <inkscape:grid
       type="xygrid"
       id="grid286"
       dotted="false"
       visible="true" />
  </sodipodi:namedview>
  <path
     id="path1368-1"
     style="fill:#1a1a1a;stroke-width:1.40394"
     d="M 20.902344,12.907233 C 19.611215,26.360626 33.24573,35.851945 50,35.851945 c 16.75427,0 30.226653,-9.491317 28.935547,-22.944712 C 77.13957,-5.8069396 50.895102,-6.1993569 49.920681,-6.1993762 48.946259,-6.1993956 22.69841,-5.8075424 20.902344,12.907233 Z m 29.01758,-17.6601561 c 3.429724,0 23.412716,1.999108 24.394531,17.7539061 C 74.782434,20.510449 62.970677,28.276374 50,28.276374 c -12.970677,0 -24.942612,-7.765926 -24.474609,-15.275391 0.982008,-15.75708 20.968967,-17.7539061 24.394531,-17.7539061 z"
     sodipodi:nodetypes="sssssssssss" />
  <path
     d="m 90,29.5 -37,25 v 44 l 37,-25 z"
     id="path1576" />
  <path
     d="m 10,29.5 v 44 l 37,25 v -44 z"
     id="path1574" />
  <path
     d="M 20.027344,19.322266 13,23.5 l 37,25 37,-25 -7.027344,-4.177734 C 79.9809,19.548716 80,19.768026 80,20 80,29.99997 64.999955,40 50,40 35.000045,40 20,29.99997 20,20 c 0,-0.231974 0.0191,-0.451284 0.02734,-0.677734 z"
     id="path1572" />
  <path
     d="M 50,1.5 28.669922,14.181641 c 1.478032,5.547509 11.358753,10.695312 21.248047,10.695312 9.938225,0 19.871696,-5.19852 21.273437,-10.777344 z"
     id="polygon214" />
</svg>
