<?xml version="1.0" encoding="UTF-8" standalone="no"?>
<!-- Created with Inkscape (http://www.inkscape.org/) -->

<svg
   width="100"
   height="100"
   viewBox="0 0 100 100"
   version="1.1"
   id="svg5"
   inkscape:version="1.2.2 (b0a8486541, 2022-12-01)"
   sodipodi:docname="theme-toggle.svg"
   xml:space="preserve"
   xmlns:inkscape="http://www.inkscape.org/namespaces/inkscape"
   xmlns:sodipodi="http://sodipodi.sourceforge.net/DTD/sodipodi-0.dtd"
   xmlns="http://www.w3.org/2000/svg"
   xmlns:svg="http://www.w3.org/2000/svg"><sodipodi:namedview
     id="namedview7"
     pagecolor="#505050"
     bordercolor="#eeeeee"
     borderopacity="1"
     inkscape:showpageshadow="false"
     inkscape:pageopacity="0"
     inkscape:pagecheckerboard="false"
     inkscape:deskcolor="#505050"
     inkscape:document-units="px"
     showgrid="true"
     inkscape:lockguides="false"
     borderlayer="true"
     showguides="false"
     inkscape:zoom="1.2899551"
     inkscape:cx="36.822987"
     inkscape:cy="42.637143"
     inkscape:window-width="1920"
     inkscape:window-height="1023"
     inkscape:window-x="0"
     inkscape:window-y="0"
     inkscape:window-maximized="1"
     inkscape:current-layer="layer1"><inkscape:grid
       type="xygrid"
       id="grid9"
       originx="0"
       originy="0"
       dotted="false"
       empspacing="5" /></sodipodi:namedview><defs
     id="defs2" /><g
     inkscape:label="Layer 1"
     inkscape:groupmode="layer"
     id="layer1"><path
       id="path13533-3"
       style="fill:#020202;fill-opacity:1;stroke:#ffffff;stroke-width:2.47329;stroke-linecap:round;stroke-linejoin:round;stroke-dasharray:none;stroke-opacity:1;paint-order:markers fill stroke"
       d="M 56.908374,1.2366357 46.305384,11.541078 33.597744,3.6807543 A 49.257637,49.257029 0 0 0 20.401999,10.783558 L 20.192984,25.418065 5.560713,28.866169 A 49.257637,49.257029 0 0 0 1.2366356,43.092315 L 11.541205,53.695175 3.6807842,66.402658 a 49.257637,49.257029 0 0 0 7.1028918,13.19437 l 14.634688,0.209016 3.448146,14.633304 a 49.257637,49.257029 0 0 0 14.225115,4.324015 L 53.695823,88.457717 66.404671,96.31925 A 49.257637,49.257029 0 0 0 79.598,89.215231 L 79.807015,74.581937 94.440496,71.133834 A 49.257637,49.257029 0 0 0 98.763364,56.907687 L 88.458797,46.304828 96.398953,33.468071 A 49.257637,49.257029 0 0 0 89.366135,20.404179 L 74.582844,20.19275 71.120199,5.5026673 A 49.257637,49.257029 0 0 0 56.908374,1.2366357 Z M 49.999999,28.051865 A 21.949009,21.948738 0 0 1 71.949011,49.999397 21.949009,21.948738 0 0 1 49.999999,71.948137 21.949009,21.948738 0 0 1 28.050988,49.999397 21.949009,21.948738 0 0 1 49.999999,28.051865 Z" /><path
       id="path13533-6"
       style="fill:#020202;fill-opacity:1;stroke:#ffffff;stroke-width:1.9941;stroke-linecap:round;stroke-linejoin:round;stroke-dasharray:none;stroke-opacity:1;paint-order:markers fill stroke"
       d="M 49.999395,10.285792 A 39.714367,39.713877 0 0 0 10.2853,49.999396 39.714367,39.713877 0 0 0 49.999395,89.71421 39.714367,39.713877 0 0 0 89.714698,49.999396 39.714367,39.713877 0 0 0 49.999395,10.285792 Z m 0,17.764864 A 21.949009,21.948738 0 0 1 71.948406,49.999396 21.949009,21.948738 0 0 1 49.999395,71.948135 21.949009,21.948738 0 0 1 28.050383,49.999396 21.949009,21.948738 0 0 1 49.999395,28.050656 Z" /><path
       id="path394"
       style="fill:#000000;stroke:#ffffff;stroke-width:1.96675;stroke-linecap:round;stroke-linejoin:round;stroke-dasharray:none;stroke-opacity:1;paint-order:markers fill stroke"
       d="M 49.79645,0.983376 A 49.321501,49.016624 0 0 0 0.474949,50 49.321501,49.016624 0 0 0 49.79645,99.016626 49.321501,49.016624 0 0 0 70.713776,94.354301 44.389351,45.340377 0 0 1 35,50 44.389351,45.340377 0 0 1 70.750382,5.6361263 49.321501,49.016624 0 0 0 49.79645,0.983376 Z" /></g></svg>
